<?xml version="1.0" encoding="UTF-8"?>
<svg version="1.1" viewBox="0 0 1600 1600" width="1280" height="1280" xmlns="http://www.w3.org/2000/svg">
<path transform="translate(525 19.4)" d="m0 0c1.03 0.86 2.06 1.73 3.08 2.6 0.56 0.48 1.12 0.95 1.7 1.44 6.24 5.38 12 11.2 17.9 17 1.23 1.23 2.45 2.45 3.68 3.67 3.34 3.33 6.68 6.68 10 10 3.64 3.64 7.28 7.28 10.9 10.9 6.38 6.37 12.8 12.8 19.1 19.1 9.47 9.49 19 19 28.4 28.4 17.4 17.4 34.9 34.8 52.3 52.3 2.46 2.47 4.93 4.94 7.4 7.4 0.49 0.49 0.98 0.98 1.48 1.49 10.9 10.9 21.7 21.7 32.6 32.6l7.45 7.45c1 0.99 1.99 1.99 2.99 2.99 0.49 0.49 0.99 0.98 1.5 1.49l3 3c28.4 28.4 56.7 56.7 85.1 85 0.52 0.53 1.04 1.05 1.59 1.59l17.6 17.6c0.79 0.8 0.79 0.8 1.6 1.61l6.4 6.4c33.8 33.8 67.6 67.6 101 101 8.52 8.52 17 17 25.6 25.6 0.53 0.52 1.05 1.05 1.59 1.59 16.2 16.2 32.3 32.3 48.5 48.5 0.51 0.5 1.02 1.01 1.54 1.53 11.2 11.2 22.3 22.3 33.4 33.4 3.99 3.98 7.98 7.97 12 12 1 0.99 1.99 1.98 2.98 2.97 15.8 15.8 31.6 31.6 47.4 47.4 16.4 16.3 32.7 32.7 49 49 9.42 9.43 18.8 18.8 28.3 28.3 6.3 6.29 12.6 12.6 18.9 18.9 3.58 3.58 7.17 7.17 10.8 10.8 3.27 3.26 6.54 6.53 9.8 9.81 1.17 1.17 2.34 2.34 3.51 3.5 9.58 9.51 19.2 19.6 25 32 0.32 0.67 0.64 1.33 0.98 2.02 9.46 20.1 11 44.8 3.67 65.9-3.76 10.3-8.26 19.3-15.4 27.6-0.52 0.61-1.05 1.22-1.6 1.85-5.59 6.42-11.5 12.4-17.6 18.5-1.23 1.23-2.46 2.46-3.68 3.69-3.35 3.36-6.7 6.71-10.1 10.1-3.66 3.65-7.31 7.32-11 11l-19.2 19.2c-9.52 9.52-19 19-28.6 28.6-18 18-36 36-54 54-1.98 1.98-3.96 3.96-5.95 5.94l-1.49 1.49c-10.9 10.9-21.8 21.8-32.7 32.8-4.5 4.5-9 8.99-13.5 13.5l-1.51 1.51c-28.5 28.5-56.9 56.9-85.4 85.4-1.06 1.06-2.12 2.13-3.19 3.19-4.8 4.81-9.61 9.61-14.4 14.4-2.14 2.14-4.28 4.28-6.42 6.43-1.08 1.07-2.15 2.14-3.22 3.21-33.9 33.9-67.8 67.9-102 102-8.55 8.56-17.1 17.1-25.6 25.7-0.79 0.79-0.79 0.79-1.6 1.59-16.2 16.2-32.4 32.5-48.7 48.7-0.51 0.51-1.02 1.02-1.54 1.55l-33.6 33.6c-4 4-8.01 8-12 12-0.99 0.99-1.99 1.99-2.99 2.98-15.8 15.9-31.7 31.7-47.6 47.6-16.4 16.4-32.8 32.8-49.2 49.2-9.47 9.45-18.9 18.9-28.4 28.4-6.31 6.33-12.6 12.6-19 19-3.6 3.6-7.2 7.2-10.8 10.8-3.27 3.29-6.55 6.56-9.84 9.84-1.18 1.17-2.35 2.34-3.52 3.52-19.5 19.7-42.2 32.9-70.5 33.9-25.7-0.6-48.6-12.7-66.2-30.8-1.57-1.64-1.57-1.64-3.97-3.41-2.27-1.87-3.98-3.71-5.88-5.94-2.76-3.24-5.65-5.93-8.93-8.62-2.36-2.1-4.29-4.49-6.3-6.92-1.46-1.76-1.46-1.76-3.83-3.52-3.02-2.44-5.36-5.19-7.88-8.13-2.64-3.04-5.51-5.84-8.45-8.6-17.8-17.1-27.7-39.2-28.3-63.9-0.09-24.2 9.71-44.5 25.7-61.9 1.8-1.97 3.51-4.01 5.23-6.05 1.96-2.24 3.94-4.2 6.25-6.06 2.54-2.1 4.43-4.23 6.48-6.79 2.18-2.48 4.7-4.52 7.21-6.66 4.79-4.21 9.4-8.68 13.4-13.7 2.3-2.85 4.99-4.94 7.82-7.25 1.67-1.65 3.34-3.32 5-5 0.83-0.82 1.67-1.65 2.53-2.5 0.84-0.82 1.67-1.65 2.53-2.5 0.84-0.82 1.67-1.65 2.53-2.5 2.44-2.45 2.44-2.45 4.53-5.15 2.32-2.9 5.01-5.01 7.88-7.35 1.67-1.65 3.34-3.32 5-5 0.83-0.82 1.67-1.65 2.53-2.5 0.84-0.82 1.67-1.65 2.53-2.5 0.84-0.82 1.67-1.65 2.53-2.5 2.44-2.45 2.44-2.45 4.53-5.15 2.32-2.9 5.01-5.01 7.88-7.35 1.67-1.65 3.34-3.32 5-5 0.83-0.82 1.67-1.65 2.53-2.5 1.25-1.23 1.25-1.23 2.53-2.5 0.84-0.82 1.67-1.65 2.53-2.5 2.44-2.45 2.44-2.45 4.53-5.15 2.32-2.9 5.01-5.01 7.88-7.35 1.67-1.65 3.34-3.32 5-5 0.83-0.82 1.67-1.65 2.53-2.5 1.25-1.23 1.25-1.23 2.53-2.5 0.84-0.82 1.67-1.65 2.53-2.5 2.44-2.45 2.44-2.45 4.53-5.15 2.32-2.9 5.01-5.01 7.88-7.35 1.67-1.65 3.34-3.32 5-5 0.83-0.82 1.67-1.65 2.53-2.5 1.25-1.23 1.25-1.23 2.53-2.5 0.84-0.82 1.67-1.65 2.53-2.5 2.44-2.45 2.44-2.45 4.53-5.15 2.32-2.9 5.01-5.01 7.88-7.35 1.67-1.65 3.34-3.32 5-5 0.83-0.82 1.67-1.65 2.53-2.5 1.25-1.23 1.25-1.23 2.53-2.5 0.84-0.82 1.67-1.65 2.53-2.5 2.44-2.45 2.44-2.45 4.53-5.15 2.32-2.9 5.01-5.01 7.88-7.35 1.67-1.65 3.34-3.32 5-5 0.83-0.82 1.67-1.65 2.53-2.5 1.25-1.23 1.25-1.23 2.53-2.5 0.84-0.82 1.67-1.65 2.53-2.5 2.44-2.45 2.44-2.45 4.53-5.15 2.32-2.9 5.01-5.01 7.88-7.35 1.67-1.65 3.34-3.32 5-5 0.83-0.82 1.67-1.65 2.53-2.5 0.84-0.82 1.67-1.65 2.53-2.5 0.84-0.82 1.67-1.65 2.53-2.5 2.44-2.45 2.44-2.45 4.53-5.15 2.32-2.9 5.01-5.01 7.88-7.35 1.67-1.65 3.34-3.32 5-5 0.83-0.82 1.67-1.65 2.53-2.5 0.84-0.82 1.67-1.65 2.53-2.5 0.84-0.82 1.67-1.65 2.53-2.5 2.44-2.45 2.44-2.45 4.53-5.15 2.32-2.9 5.01-5.01 7.88-7.35 1.67-1.65 3.34-3.32 5-5 0.83-0.82 1.67-1.65 2.53-2.5 0.84-0.82 1.67-1.65 2.53-2.5 0.84-0.82 1.67-1.65 2.53-2.5 2.44-2.45 2.44-2.45 4.53-5.15 2.32-2.9 5.01-5.01 7.88-7.35 1.67-1.65 3.34-3.32 5-5 0.83-0.82 1.67-1.65 2.53-2.5 0.84-0.82 1.67-1.65 2.53-2.5 0.84-0.82 1.67-1.65 2.53-2.5 2.44-2.45 2.44-2.45 4.53-5.15 2.32-2.9 5.01-5.01 7.88-7.35 1.67-1.65 3.34-3.32 5-5 0.83-0.82 1.67-1.65 2.53-2.5 0.84-0.82 1.67-1.65 2.53-2.5 0.84-0.82 1.67-1.65 2.53-2.5 2.44-2.45 2.44-2.45 4.53-5.15 2.32-2.9 5.01-5.01 7.88-7.35 1.67-1.65 3.34-3.32 5-5 0.83-0.82 1.67-1.65 2.53-2.5 0.84-0.82 1.67-1.65 2.53-2.5 0.84-0.82 1.67-1.65 2.53-2.5 2.44-2.45 2.44-2.45 4.53-5.15 2.32-2.9 5.01-5.01 7.88-7.35 1.67-1.65 3.34-3.32 5-5 0.83-0.82 1.67-1.65 2.53-2.5 0.84-0.82 1.67-1.65 2.53-2.5 0.84-0.82 1.67-1.65 2.53-2.5 2.44-2.45 2.44-2.45 4.53-5.15 2.32-2.9 5.01-5.01 7.88-7.35 1.67-1.65 3.34-3.32 5-5 0.83-0.82 1.67-1.65 2.53-2.5 0.84-0.82 1.67-1.65 2.53-2.5 0.84-0.82 1.67-1.65 2.53-2.5 2.44-2.45 2.44-2.45 4.53-5.15 2.32-2.9 5.01-5.01 7.88-7.35 1.67-1.65 3.34-3.32 5-5 0.83-0.82 1.67-1.65 2.53-2.5 0.84-0.82 1.67-1.65 2.53-2.5 0.84-0.82 1.67-1.65 2.53-2.5 2.44-2.45 2.44-2.45 4.53-5.15 2.32-2.9 5.01-5.01 7.88-7.35 1.67-1.65 3.34-3.32 5-5 0.83-0.82 1.67-1.65 2.53-2.5 0.84-0.82 1.67-1.65 2.53-2.5 0.84-0.82 1.67-1.65 2.53-2.5 2.44-2.45 2.44-2.45 4.53-5.15 2.32-2.9 5.01-5.01 7.88-7.35 1.67-1.65 3.34-3.32 5-5 0.83-0.82 1.67-1.65 2.53-2.5 0.84-0.82 1.67-1.65 2.53-2.5 0.84-0.82 1.67-1.65 2.53-2.5 2.44-2.45 2.44-2.45 4.53-5.15 2.32-2.9 5.01-5.01 7.88-7.35 1.67-1.65 3.34-3.32 5-5 1.25-1.23 1.25-1.23 2.53-2.5 0.84-0.82 1.67-1.65 2.53-2.5 1.25-1.23 1.25-1.23 2.53-2.5 2.44-2.45 2.44-2.45 4.53-5.15 2.32-2.9 5.01-5.01 7.88-7.35 1.67-1.65 3.34-3.32 5-5 1.25-1.23 1.25-1.23 2.53-2.5 0.84-0.82 1.67-1.65 2.53-2.5 1.25-1.23 1.25-1.23 2.53-2.5 2.4-2.4 2.4-2.4 4.22-4.87 2.44-2.93 5.14-5.26 8.03-7.74 3.62-3.17 6.97-6.59 10.3-10 1.03-1.04 1.03-1.04 2.08-2.09l3.99-4.02c3.52-3.56 7.07-7.09 10.6-10.6 1.41-1.41 2.83-2.81 4.24-4.22 0.72-0.71 1.43-1.41 2.17-2.14 0.69-0.69 1.38-1.37 2.09-2.08 0.62-0.62 1.25-1.24 1.89-1.87 1.79-1.84 1.79-1.84 3.33-4.08 0.46-0.58 0.92-1.17 1.4-1.77h2v-2c1.53-1.5 1.53-1.5 3.5-3.12 0.97-0.81 0.97-0.81 1.97-1.63 0.5-0.41 1.01-0.82 1.53-1.25-0.71-3.89-2.2-5.13-5.3-7.55-1.75-1.48-3.13-3.03-4.59-4.79-5.44-6.29-11.4-12.1-17.3-18-1.28-1.28-2.56-2.55-3.83-3.83l-7.99-7.99c-3.41-3.4-6.81-6.8-10.2-10.2-2.63-2.64-5.26-5.27-7.89-7.9l-3.76-3.76c-1.75-1.76-3.51-3.51-5.27-5.26-0.51-0.51-1.02-1.03-1.54-1.55-3.31-3.29-6.76-6.26-10.4-9.22-1.18-1.28-2.34-2.59-3.44-3.93-2.76-3.25-5.66-5.94-8.94-8.63-2.51-2.22-4.49-4.87-6.62-7.44-1.46-1.2-2.92-2.41-4.41-3.59-1.86-1.65-3.42-3.44-5.03-5.34-2.76-3.25-5.66-5.94-8.94-8.63-2.51-2.22-4.49-4.87-6.62-7.44-1.47-1.21-2.94-2.42-4.42-3.61-1.75-1.53-3.2-3.18-4.71-4.95-3.16-3.7-6.5-7.18-9.94-10.6-0.49-0.5-0.98-1-1.49-1.52-2.45-2.44-4.94-4.75-7.62-6.94-2.27-1.9-4.09-3.65-5.95-5.92-3.16-3.7-6.5-7.18-9.94-10.6-0.49-0.5-0.98-1-1.49-1.52-2.45-2.44-4.94-4.75-7.62-6.94-2.27-1.9-4.09-3.65-5.95-5.92-3.16-3.7-6.5-7.18-9.94-10.6-0.49-0.5-0.98-1-1.49-1.52-2.45-2.44-4.94-4.75-7.62-6.94-2.27-1.9-4.09-3.65-5.95-5.92-3.16-3.7-6.5-7.18-9.94-10.6-0.49-0.5-0.98-1-1.49-1.52-2.45-2.44-4.94-4.75-7.62-6.94-2.27-1.9-4.09-3.65-5.95-5.92-3.16-3.7-6.5-7.18-9.94-10.6-0.49-0.5-0.98-1-1.49-1.52-2.45-2.44-4.94-4.75-7.62-6.94-2.27-1.9-4.09-3.65-5.95-5.92-4.47-5.26-9.4-10-14.3-14.9-2.2-2.18-4.38-4.36-6.56-6.55-1.89-1.88-3.77-3.76-5.66-5.64l-3.43-3.43c-0.61-0.61-1.22-1.22-1.85-1.84-37.6-37.6-75.3-75.2-113-113-4.84-4.84-9.69-9.68-14.5-14.5l-1.46-1.46c-15.6-15.6-31.2-31.2-46.9-46.8-16.5-16.5-33.1-33-49.6-49.5-9.89-9.88-19.8-19.8-29.7-29.6-6.79-6.77-13.6-13.5-20.3-20.3-3.91-3.91-7.82-7.82-11.7-11.7-3.59-3.58-7.17-7.16-10.8-10.8-1.29-1.29-2.58-2.58-3.88-3.87-9.3-9.24-17.8-18.6-23.6-30.5-0.33-0.67-0.66-1.34-1-2.03-9.8-20.6-10.4-43.9-2.98-65.4 3.72-10.2 8.58-19.2 15.7-27.4 0.53-0.6 1.05-1.2 1.58-1.82 5.52-6.29 11.4-12.2 17.3-18.2 1.14-1.15 2.29-2.29 3.43-3.44 2.37-2.38 4.74-4.75 7.12-7.12 3.01-3.01 6.01-6.03 9.01-9.05 2.35-2.36 4.7-4.72 7.06-7.07 1.11-1.11 2.22-2.22 3.32-3.34 9.18-9.26 18.8-18 30.7-23.6 0.67-0.33 1.35-0.65 2.04-0.99 30.7-14.5 65.3-10.4 92 10.7z"/>
</svg>
