<svg width="113" height="17" viewBox="0 0 113 17" fill="none" xmlns="http://www.w3.org/2000/svg">
<g id="Group 12">
<g id="Group 11">
<path id="Star 1" d="M7.62489 0.290941C7.80755 -0.0969807 8.33531 -0.0969801 8.51797 0.290941L10.6264 4.76872C10.6989 4.92277 10.8392 5.02954 11.0013 5.05424L15.716 5.77229C16.1244 5.83449 16.2875 6.36058 15.9919 6.66254L12.5804 10.148C12.463 10.2679 12.4095 10.4407 12.4372 10.61L13.2425 15.5315C13.3123 15.9579 12.8853 16.283 12.52 16.0817L8.30315 13.7581C8.15808 13.6782 7.98477 13.6782 7.83971 13.7581L3.62283 16.0817C3.25751 16.283 2.83054 15.9579 2.90031 15.5315L3.70566 10.61C3.73337 10.4407 3.67981 10.2679 3.56245 10.148L0.150923 6.66254C-0.144626 6.36058 0.0184618 5.83449 0.426901 5.77229L5.14151 5.05424C5.30371 5.02954 5.44391 4.92277 5.51645 4.76872L7.62489 0.290941Z" fill="#FE7E21"/>
<path id="Star 2" d="M31.8391 0.290941C32.0218 -0.0969807 32.5495 -0.0969801 32.7322 0.290941L34.8406 4.76872C34.9132 4.92277 35.0534 5.02954 35.2156 5.05424L39.9302 5.77229C40.3386 5.83449 40.5017 6.36058 40.2062 6.66254L36.7946 10.148C36.6773 10.2679 36.6237 10.4407 36.6514 10.61L37.4568 15.5315C37.5266 15.9579 37.0996 16.283 36.7343 16.0817L32.5174 13.7581C32.3723 13.6782 32.199 13.6782 32.0539 13.7581L27.8371 16.0817C27.4717 16.283 27.0448 15.9579 27.1145 15.5315L27.9199 10.61C27.9476 10.4407 27.894 10.2679 27.7767 10.148L24.3652 6.66254C24.0696 6.36058 24.2327 5.83449 24.6411 5.77229L29.3557 5.05424C29.5179 5.02954 29.6581 4.92277 29.7307 4.76872L31.8391 0.290941Z" fill="#FE7E21"/>
<path id="Star 3" d="M56.0535 0.290941C56.2361 -0.0969807 56.7639 -0.0969801 56.9466 0.290941L59.055 4.76872C59.1275 4.92277 59.2677 5.02954 59.4299 5.05424L64.1445 5.77229C64.553 5.83449 64.7161 6.36058 64.4205 6.66254L61.009 10.148C60.8916 10.2679 60.8381 10.4407 60.8658 10.61L61.6711 15.5315C61.7409 15.9579 61.3139 16.283 60.9486 16.0817L56.7317 13.7581C56.5867 13.6782 56.4134 13.6782 56.2683 13.7581L52.0514 16.0817C51.6861 16.283 51.2591 15.9579 51.3289 15.5315L52.1343 10.61C52.162 10.4407 52.1084 10.2679 51.991 10.148L48.5795 6.66254C48.284 6.36058 48.4471 5.83449 48.8555 5.77229L53.5701 5.05424C53.7323 5.02954 53.8725 4.92277 53.945 4.76872L56.0535 0.290941Z" fill="#FE7E21"/>
<path id="Star 4" d="M80.2677 0.290941C80.4504 -0.0969807 80.9781 -0.0969801 81.1608 0.290941L83.2692 4.76872C83.3418 4.92277 83.482 5.02954 83.6442 5.05424L88.3588 5.77229C88.7672 5.83449 88.9303 6.36058 88.6348 6.66254L85.2232 10.148C85.1059 10.2679 85.0523 10.4407 85.08 10.61L85.8854 15.5315C85.9551 15.9579 85.5282 16.283 85.1629 16.0817L80.946 13.7581C80.8009 13.6782 80.6276 13.6782 80.4825 13.7581L76.2656 16.0817C75.9003 16.283 75.4734 15.9579 75.5431 15.5315L76.3485 10.61C76.3762 10.4407 76.3226 10.2679 76.2053 10.148L72.7937 6.66254C72.4982 6.36058 72.6613 5.83449 73.0697 5.77229L77.7843 5.05424C77.9465 5.02954 78.0867 4.92277 78.1593 4.76872L80.2677 0.290941Z" fill="#FE7E21"/>
<path id="Star 6" d="M104.482 0.290941C104.665 -0.0969807 105.192 -0.0969801 105.375 0.290941L107.484 4.76872C107.556 4.92277 107.696 5.02954 107.859 5.05424L112.573 5.77229C112.982 5.83449 113.145 6.36058 112.849 6.66254L109.438 10.148C109.32 10.2679 109.267 10.4407 109.294 10.61L110.1 15.5315C110.169 15.9579 109.743 16.283 109.377 16.0817L105.16 13.7581C105.015 13.6782 104.842 13.6782 104.697 13.7581L100.48 16.0817C100.115 16.283 99.6877 15.9579 99.7575 15.5315L100.563 10.61C100.591 10.4407 100.537 10.2679 100.42 10.148L97.0081 6.66254C96.7126 6.36058 96.8756 5.83449 97.2841 5.77229L101.999 5.05424C102.161 5.02954 102.301 4.92277 102.374 4.76872L104.482 0.290941Z" fill="#C4C4C4"/>
<path id="Star 5" d="M100.48 16.0818L104.697 13.7582L104.482 0.291016L102.374 4.7688C102.301 4.92284 102.161 5.02961 101.999 5.05432L97.2841 5.77236C96.8756 5.83457 96.7126 6.36066 97.0081 6.66261L100.42 10.1481C100.537 10.268 100.591 10.4407 100.563 10.6101L99.7575 15.5316C99.6877 15.958 100.115 16.2831 100.48 16.0818Z" fill="#FE7E21"/>
</g>
</g>
</svg>
